<?xml version="1.0" encoding="utf-8"?>
<!-- Generator: Adobe Illustrator 26.5.0, SVG Export Plug-In . SVG Version: 6.00 Build 0)  -->
<svg version="1.1" id="Layer_1" xmlns="http://www.w3.org/2000/svg" xmlns:xlink="http://www.w3.org/1999/xlink" x="0px" y="0px"
	 viewBox="0 0 708.3 611" style="enable-background:new 0 0 708.3 611;" xml:space="preserve">
<style type="text/css">
	.st0{fill:#D1D3D4;}
	.st1{fill:#BCBEC0;}
	.st2{fill:#939598;}
	.st3{fill:#3951A3;stroke:#000000;stroke-miterlimit:10;}
	.st4{fill:#E81E25;stroke:#000000;stroke-miterlimit:10;}
	.st5{fill:#AED249;stroke:#000000;stroke-miterlimit:10;}
	.st6{fill:#FDF9CB;stroke:#000000;stroke-width:1.1849;stroke-miterlimit:10;}
	.st7{fill:#8C8E90;}
	.st8{fill:#F8FBF6;}
	.st9{fill:#B1B5B4;}
</style>
<path class="st0" d="M454.6,373H253.7c-22.4,0-40.5-18.1-40.5-40.5V213.5c0-22.4,18.1-40.5,40.5-40.5h200.9
	c22.4,0,40.5,18.1,40.5,40.5v118.9C495.1,354.9,477,373,454.6,373z"/>
<polygon class="st1" points="523.5,438 177.8,438 214.6,372.1 490.5,373.1 "/>
<rect x="177.8" y="438" class="st2" width="345.7" height="19.9"/>
<path class="st3" d="M364.4,285.6h-25c-6.2,0-11.2-5-11.2-11.2v-36.3c0-6.2,5-11.2,11.2-11.2h25c6.2,0,11.2,5,11.2,11.2v36.3
	C375.7,280.5,370.6,285.6,364.4,285.6z"/>
<path class="st4" d="M284.8,285.3h-25c-6.2,0-11.2-5-11.2-11.2v-36.3c0-6.2,5-11.2,11.2-11.2h25c6.2,0,11.2,5,11.2,11.2v36.3
	C296,280.3,291,285.3,284.8,285.3z"/>
<path class="st5" d="M445.6,285.6h-25c-6.2,0-11.2-5-11.2-11.2v-36.3c0-6.2,5-11.2,11.2-11.2h25c6.2,0,11.2,5,11.2,11.2v36.3
	C456.9,280.5,451.8,285.6,445.6,285.6z"/>
<polygon class="st6" points="277.2,302.9 268.9,302.9 264.9,286.3 280.9,286.3 "/>
<polygon class="st6" points="356.2,302.9 347.9,302.9 343.9,286.3 359.9,286.3 "/>
<polygon class="st6" points="437,302.3 428.7,302.3 424.8,285.7 440.7,285.7 "/>
<ellipse class="st7" cx="272.9" cy="403.5" rx="28" ry="10"/>
<ellipse class="st7" cx="354.1" cy="403.5" rx="28" ry="10"/>
<ellipse class="st7" cx="433.1" cy="403.5" rx="28" ry="10"/>
<path class="st7" d="M498.5,173H208.8c-4,0-7.2-3.2-7.2-7.2v-7.1c0-4,3.2-7.2,7.2-7.2h289.7c4,0,7.2,3.2,7.2,7.2v7.1
	C505.7,169.8,502.5,173,498.5,173z"/>
<path class="st8" d="M436.2,169.4H271.1c-3.9,0-7.1-3.2-7.1-7.1v0c0-3.9,3.2-7.1,7.1-7.1h165.1c3.9,0,7.1,3.2,7.1,7.1v0
	C443.3,166.2,440.1,169.4,436.2,169.4z"/>
<path class="st9" d="M285.9,215.9h-27.3c-5.6,0-10.1-4.5-10.1-10.1v-5.9c0-5.6,4.5-10.1,10.1-10.1h27.3c5.6,0,10.1,4.5,10.1,10.1
	v5.9C296,211.4,291.5,215.9,285.9,215.9z"/>
<path class="st9" d="M364.3,215.9H337c-5.6,0-10.1-4.5-10.1-10.1v-5.9c0-5.6,4.5-10.1,10.1-10.1h27.3c5.6,0,10.1,4.5,10.1,10.1v5.9
	C374.4,211.4,369.9,215.9,364.3,215.9z"/>
<path class="st9" d="M446.8,215.9h-27.3c-5.6,0-10.1-4.5-10.1-10.1v-5.9c0-5.6,4.5-10.1,10.1-10.1h27.3c5.6,0,10.1,4.5,10.1,10.1
	v5.9C456.9,211.4,452.3,215.9,446.8,215.9z"/>
</svg>
